<?xml version="1.0" encoding="UTF-8" standalone="no"?>
<!DOCTYPE svg PUBLIC "-//W3C//DTD SVG 1.1//EN" "http://www.w3.org/Graphics/SVG/1.1/DTD/svg11.dtd">
<svg width="100%" height="100%" viewBox="0 0 941 182" version="1.1" xmlns="http://www.w3.org/2000/svg" xmlns:xlink="http://www.w3.org/1999/xlink" xml:space="preserve" xmlns:serif="http://www.serif.com/" style="fill-rule:evenodd;clip-rule:evenodd;stroke-linejoin:round;stroke-miterlimit:2;">
    <g transform="matrix(1,0,0,1,-99.7724,-472.719)">
        <g transform="matrix(1,0,0,1,73.0326,-275.572)">
            <g transform="matrix(144,0,0,144,25.0118,856.292)">
                <path d="M0.245,-0.68C0.2,-0.661 0.166,-0.633 0.142,-0.596C0.117,-0.559 0.105,-0.514 0.105,-0.461C0.105,-0.436 0.107,-0.419 0.112,-0.41C0.117,-0.4 0.119,-0.394 0.119,-0.393C0.083,-0.393 0.056,-0.401 0.039,-0.416C0.021,-0.431 0.012,-0.455 0.012,-0.49C0.012,-0.533 0.029,-0.574 0.065,-0.615C0.099,-0.655 0.144,-0.688 0.199,-0.713C0.254,-0.737 0.308,-0.75 0.363,-0.75C0.372,-0.75 0.386,-0.749 0.403,-0.748L0.339,-0.45L0.486,-0.45L0.55,-0.748L0.694,-0.748L0.535,-0L0.391,-0L0.471,-0.376L0.324,-0.376L0.244,-0L0.1,-0L0.245,-0.68Z" style="fill:rgb(254,254,254);fill-rule:nonzero;"/>
            </g>
            <g transform="matrix(144,0,0,144,120.772,856.292)">
                <path d="M0.12,0.006C0.082,0.006 0.05,-0.007 0.025,-0.033C-0,-0.059 -0.013,-0.1 -0.013,-0.155C-0.013,-0.204 -0.003,-0.256 0.017,-0.311C0.036,-0.365 0.066,-0.411 0.105,-0.449C0.143,-0.486 0.19,-0.505 0.244,-0.505C0.271,-0.505 0.292,-0.5 0.305,-0.491C0.318,-0.482 0.325,-0.469 0.325,-0.454L0.325,-0.447L0.336,-0.5L0.48,-0.5L0.408,-0.16C0.405,-0.15 0.404,-0.139 0.404,-0.128C0.404,-0.099 0.418,-0.085 0.445,-0.085C0.464,-0.085 0.48,-0.094 0.494,-0.111C0.507,-0.128 0.518,-0.151 0.526,-0.179L0.568,-0.179C0.543,-0.107 0.513,-0.058 0.477,-0.033C0.44,-0.007 0.404,0.006 0.367,0.006C0.339,0.006 0.317,-0.002 0.3,-0.018C0.283,-0.033 0.272,-0.056 0.269,-0.086C0.25,-0.059 0.228,-0.037 0.205,-0.02C0.181,-0.003 0.153,0.006 0.12,0.006ZM0.185,-0.091C0.202,-0.091 0.218,-0.099 0.235,-0.115C0.251,-0.13 0.262,-0.152 0.268,-0.179L0.316,-0.405C0.316,-0.414 0.313,-0.422 0.306,-0.431C0.299,-0.439 0.289,-0.443 0.275,-0.443C0.248,-0.443 0.224,-0.428 0.203,-0.397C0.182,-0.366 0.165,-0.328 0.153,-0.285C0.141,-0.241 0.135,-0.202 0.135,-0.169C0.135,-0.136 0.14,-0.114 0.15,-0.105C0.159,-0.096 0.171,-0.091 0.185,-0.091Z" style="fill:rgb(254,254,254);fill-rule:nonzero;"/>
            </g>
            <g transform="matrix(144,0,0,144,196.516,856.292)">
                <path d="M0.143,0.006C0.094,0.006 0.055,-0.007 0.028,-0.033C0.001,-0.058 -0.013,-0.098 -0.013,-0.153C-0.013,-0.199 -0.004,-0.25 0.015,-0.305C0.033,-0.36 0.062,-0.408 0.103,-0.449C0.143,-0.489 0.194,-0.509 0.256,-0.509C0.296,-0.509 0.325,-0.5 0.342,-0.483C0.359,-0.466 0.367,-0.444 0.367,-0.417C0.367,-0.394 0.362,-0.376 0.352,-0.363C0.342,-0.35 0.329,-0.344 0.314,-0.344C0.303,-0.344 0.291,-0.348 0.279,-0.356C0.287,-0.378 0.291,-0.398 0.291,-0.415C0.291,-0.428 0.289,-0.438 0.284,-0.445C0.279,-0.452 0.272,-0.456 0.263,-0.456C0.243,-0.456 0.223,-0.44 0.203,-0.407C0.183,-0.374 0.167,-0.335 0.154,-0.288C0.141,-0.241 0.135,-0.199 0.135,-0.162C0.135,-0.129 0.141,-0.107 0.152,-0.096C0.163,-0.084 0.182,-0.078 0.207,-0.078C0.243,-0.078 0.274,-0.086 0.3,-0.103C0.325,-0.12 0.353,-0.145 0.384,-0.179L0.418,-0.179C0.344,-0.056 0.252,0.006 0.143,0.006Z" style="fill:rgb(254,254,254);fill-rule:nonzero;"/>
            </g>
            <g transform="matrix(144,0,0,144,251.812,856.292)">
                <path d="M0.376,0.006C0.335,0.006 0.303,-0.004 0.282,-0.024C0.261,-0.043 0.25,-0.071 0.25,-0.108C0.25,-0.124 0.252,-0.141 0.256,-0.16L0.264,-0.199C0.267,-0.21 0.268,-0.223 0.268,-0.236C0.268,-0.268 0.256,-0.284 0.232,-0.284C0.221,-0.284 0.21,-0.281 0.199,-0.275C0.187,-0.269 0.173,-0.26 0.158,-0.247L0.106,-0L-0.038,-0L0.107,-0.68L0.255,-0.7L0.18,-0.348L0.373,-0.5L0.472,-0.5L0.272,-0.361C0.282,-0.364 0.293,-0.365 0.305,-0.365C0.341,-0.365 0.368,-0.354 0.387,-0.332C0.406,-0.31 0.415,-0.282 0.415,-0.248C0.415,-0.234 0.414,-0.221 0.411,-0.21L0.4,-0.16C0.397,-0.148 0.395,-0.137 0.395,-0.128C0.395,-0.103 0.408,-0.091 0.434,-0.091C0.449,-0.091 0.458,-0.092 0.462,-0.094C0.466,-0.096 0.468,-0.097 0.469,-0.097C0.468,-0.075 0.462,-0.056 0.451,-0.041C0.44,-0.026 0.427,-0.014 0.413,-0.006C0.398,0.002 0.386,0.006 0.376,0.006Z" style="fill:rgb(254,254,254);fill-rule:nonzero;"/>
            </g>
            <g transform="matrix(144,0,0,144,319.78,856.292)">
                <path d="M0.248,-0.683C0.201,-0.665 0.164,-0.637 0.138,-0.6C0.112,-0.562 0.099,-0.516 0.099,-0.461C0.099,-0.436 0.101,-0.419 0.106,-0.41C0.111,-0.4 0.113,-0.394 0.113,-0.393C0.077,-0.393 0.05,-0.401 0.033,-0.416C0.015,-0.431 0.006,-0.455 0.006,-0.49C0.006,-0.533 0.024,-0.574 0.059,-0.615C0.094,-0.655 0.138,-0.688 0.193,-0.713C0.248,-0.737 0.302,-0.75 0.357,-0.75C0.366,-0.75 0.38,-0.749 0.397,-0.748L0.406,-0.133L0.616,-0.745L0.743,-0.745L0.752,-0.133L0.962,-0.745L1.032,-0.745L0.754,-0L0.61,-0L0.598,-0.509L0.408,-0L0.264,-0L0.248,-0.683Z" style="fill:rgb(254,254,254);fill-rule:nonzero;"/>
            </g>
            <g transform="matrix(144,0,0,144,458.308,856.292)">
                <path d="M0.167,-0.554C0.145,-0.554 0.126,-0.562 0.111,-0.577C0.096,-0.592 0.088,-0.611 0.088,-0.633C0.088,-0.655 0.096,-0.674 0.111,-0.69C0.126,-0.705 0.145,-0.713 0.167,-0.713C0.189,-0.713 0.208,-0.705 0.224,-0.69C0.239,-0.674 0.247,-0.655 0.247,-0.633C0.247,-0.611 0.239,-0.592 0.224,-0.577C0.208,-0.562 0.189,-0.554 0.167,-0.554ZM0.099,0.006C0.067,0.006 0.041,-0.004 0.022,-0.024C0.002,-0.044 -0.008,-0.074 -0.008,-0.114C-0.008,-0.131 -0.005,-0.152 0,-0.179L0.068,-0.5L0.212,-0.5L0.14,-0.16C0.137,-0.15 0.136,-0.139 0.136,-0.128C0.136,-0.115 0.139,-0.105 0.146,-0.1C0.152,-0.094 0.162,-0.091 0.177,-0.091C0.196,-0.091 0.214,-0.099 0.231,-0.116C0.248,-0.132 0.26,-0.153 0.267,-0.179L0.309,-0.179C0.284,-0.107 0.253,-0.058 0.214,-0.033C0.175,-0.007 0.137,0.006 0.099,0.006Z" style="fill:rgb(254,254,254);fill-rule:nonzero;"/>
            </g>
            <g transform="matrix(144,0,0,144,496.756,856.292)">
                <path d="M0.608,0.006C0.567,0.006 0.538,-0.005 0.519,-0.027C0.5,-0.048 0.49,-0.075 0.49,-0.107C0.49,-0.121 0.492,-0.137 0.495,-0.155C0.498,-0.172 0.502,-0.189 0.506,-0.206C0.509,-0.223 0.512,-0.233 0.513,-0.238C0.518,-0.261 0.523,-0.284 0.528,-0.307C0.533,-0.33 0.535,-0.348 0.535,-0.362C0.535,-0.396 0.523,-0.413 0.499,-0.413C0.482,-0.413 0.466,-0.405 0.453,-0.388C0.44,-0.371 0.429,-0.348 0.421,-0.321L0.353,-0L0.209,-0L0.282,-0.345C0.284,-0.353 0.285,-0.361 0.285,-0.37C0.285,-0.399 0.275,-0.414 0.255,-0.414C0.236,-0.414 0.22,-0.406 0.207,-0.389C0.193,-0.372 0.182,-0.349 0.174,-0.321L0.106,-0L-0.038,-0L0.068,-0.5L0.212,-0.5L0.201,-0.448C0.235,-0.486 0.276,-0.505 0.323,-0.505C0.382,-0.505 0.416,-0.476 0.426,-0.419C0.463,-0.476 0.509,-0.504 0.565,-0.504C0.599,-0.504 0.626,-0.495 0.646,-0.476C0.666,-0.457 0.676,-0.429 0.676,-0.391C0.676,-0.372 0.674,-0.35 0.669,-0.327C0.664,-0.303 0.658,-0.274 0.649,-0.24C0.644,-0.219 0.639,-0.199 0.635,-0.18C0.63,-0.16 0.628,-0.144 0.628,-0.133C0.628,-0.12 0.631,-0.109 0.637,-0.102C0.643,-0.095 0.653,-0.091 0.668,-0.091C0.688,-0.091 0.704,-0.098 0.716,-0.113C0.728,-0.127 0.74,-0.149 0.752,-0.179L0.794,-0.179C0.769,-0.106 0.741,-0.057 0.709,-0.032C0.676,-0.007 0.643,0.006 0.608,0.006Z" style="fill:rgb(254,254,254);fill-rule:nonzero;"/>
            </g>
            <g transform="matrix(144,0,0,144,605.044,856.292)">
                <path d="M0.133,0.006C0.088,0.006 0.053,-0.005 0.029,-0.028C0.005,-0.05 -0.007,-0.081 -0.007,-0.122C-0.007,-0.142 -0.005,-0.161 0,-0.179L0.107,-0.68L0.255,-0.7L0.207,-0.475C0.226,-0.486 0.241,-0.494 0.253,-0.498C0.265,-0.501 0.277,-0.503 0.289,-0.503C0.368,-0.503 0.407,-0.446 0.407,-0.332C0.407,-0.286 0.398,-0.237 0.381,-0.185C0.363,-0.132 0.333,-0.087 0.293,-0.05C0.252,-0.013 0.198,0.006 0.133,0.006ZM0.189,-0.091C0.21,-0.091 0.229,-0.104 0.247,-0.13C0.265,-0.155 0.279,-0.187 0.29,-0.226C0.301,-0.264 0.306,-0.301 0.306,-0.336C0.306,-0.363 0.301,-0.385 0.292,-0.404C0.283,-0.423 0.27,-0.432 0.253,-0.432C0.243,-0.432 0.232,-0.431 0.22,-0.428C0.207,-0.424 0.199,-0.42 0.194,-0.414L0.139,-0.16C0.137,-0.152 0.136,-0.144 0.136,-0.137C0.136,-0.106 0.154,-0.091 0.189,-0.091Z" style="fill:rgb(254,254,254);fill-rule:nonzero;"/>
            </g>
            <g transform="matrix(144,0,0,144,668.98,856.292)">
                <path d="M0.099,0.006C0.067,0.006 0.041,-0.004 0.022,-0.024C0.002,-0.044 -0.008,-0.074 -0.008,-0.114C-0.008,-0.131 -0.005,-0.152 0,-0.179L0.107,-0.68L0.255,-0.7L0.14,-0.16C0.137,-0.15 0.136,-0.139 0.136,-0.128C0.136,-0.115 0.139,-0.105 0.146,-0.1C0.152,-0.094 0.162,-0.091 0.177,-0.091C0.196,-0.091 0.214,-0.099 0.231,-0.116C0.248,-0.132 0.26,-0.153 0.267,-0.179L0.309,-0.179C0.284,-0.107 0.253,-0.058 0.214,-0.033C0.175,-0.007 0.137,0.006 0.099,0.006Z" style="fill:rgb(254,254,254);fill-rule:nonzero;"/>
            </g>
            <g transform="matrix(144,0,0,144,707.428,856.292)">
                <path d="M0.143,0.006C0.094,0.006 0.055,-0.007 0.028,-0.033C0.001,-0.058 -0.013,-0.098 -0.013,-0.153C-0.013,-0.199 -0.004,-0.25 0.014,-0.305C0.032,-0.36 0.061,-0.408 0.102,-0.449C0.143,-0.489 0.194,-0.509 0.257,-0.509C0.33,-0.509 0.367,-0.477 0.367,-0.413C0.367,-0.376 0.356,-0.341 0.335,-0.31C0.314,-0.279 0.285,-0.254 0.25,-0.235C0.215,-0.216 0.177,-0.205 0.137,-0.202C0.136,-0.182 0.135,-0.169 0.135,-0.162C0.135,-0.129 0.141,-0.107 0.152,-0.096C0.163,-0.084 0.182,-0.078 0.207,-0.078C0.243,-0.078 0.274,-0.086 0.3,-0.103C0.325,-0.12 0.353,-0.145 0.384,-0.179L0.418,-0.179C0.344,-0.056 0.252,0.006 0.143,0.006ZM0.145,-0.25C0.17,-0.251 0.193,-0.26 0.216,-0.276C0.238,-0.292 0.256,-0.312 0.27,-0.337C0.283,-0.362 0.29,-0.388 0.29,-0.415C0.29,-0.442 0.282,-0.456 0.265,-0.456C0.241,-0.456 0.218,-0.435 0.195,-0.393C0.171,-0.351 0.155,-0.303 0.145,-0.25Z" style="fill:rgb(254,254,254);fill-rule:nonzero;"/>
            </g>
            <g transform="matrix(144,0,0,144,762.724,856.292)">
                <path d="M0.12,0.006C0.082,0.006 0.05,-0.007 0.025,-0.033C-0,-0.059 -0.013,-0.1 -0.013,-0.155C-0.013,-0.204 -0.003,-0.256 0.017,-0.311C0.036,-0.365 0.066,-0.411 0.105,-0.449C0.143,-0.486 0.19,-0.505 0.244,-0.505C0.271,-0.505 0.292,-0.5 0.305,-0.491C0.318,-0.482 0.325,-0.469 0.325,-0.454L0.325,-0.45L0.374,-0.68L0.522,-0.7L0.407,-0.16C0.404,-0.15 0.403,-0.139 0.403,-0.128C0.403,-0.115 0.406,-0.105 0.413,-0.1C0.419,-0.094 0.429,-0.091 0.444,-0.091C0.463,-0.091 0.479,-0.099 0.493,-0.115C0.506,-0.131 0.517,-0.152 0.525,-0.179L0.567,-0.179C0.526,-0.06 0.459,-0 0.366,-0C0.339,-0 0.317,-0.007 0.3,-0.022C0.283,-0.037 0.272,-0.058 0.268,-0.086C0.251,-0.059 0.23,-0.037 0.206,-0.02C0.181,-0.003 0.153,0.006 0.12,0.006ZM0.185,-0.091C0.201,-0.091 0.217,-0.098 0.234,-0.113C0.25,-0.128 0.261,-0.148 0.267,-0.174L0.267,-0.179L0.316,-0.408C0.31,-0.431 0.296,-0.443 0.275,-0.443C0.248,-0.443 0.224,-0.428 0.203,-0.397C0.182,-0.366 0.165,-0.328 0.153,-0.285C0.141,-0.241 0.135,-0.202 0.135,-0.169C0.135,-0.136 0.14,-0.114 0.15,-0.105C0.159,-0.096 0.171,-0.091 0.185,-0.091Z" style="fill:rgb(254,254,254);fill-rule:nonzero;"/>
            </g>
            <g transform="matrix(144,0,0,144,838.324,856.292)">
                <path d="M0.146,0.004C0.097,0.004 0.058,-0.009 0.029,-0.034C0,-0.059 -0.014,-0.099 -0.014,-0.154C-0.014,-0.199 -0.005,-0.25 0.014,-0.305C0.033,-0.36 0.063,-0.408 0.104,-0.449C0.145,-0.489 0.197,-0.509 0.26,-0.509C0.345,-0.509 0.388,-0.456 0.388,-0.349L0.388,-0.348C0.39,-0.347 0.394,-0.347 0.399,-0.347C0.421,-0.347 0.446,-0.353 0.475,-0.365C0.504,-0.376 0.53,-0.39 0.553,-0.407L0.562,-0.38C0.543,-0.359 0.518,-0.342 0.487,-0.328C0.456,-0.313 0.422,-0.303 0.385,-0.297C0.38,-0.236 0.366,-0.183 0.344,-0.138C0.322,-0.093 0.294,-0.058 0.259,-0.033C0.224,-0.008 0.187,0.004 0.146,0.004ZM0.186,-0.086C0.202,-0.086 0.218,-0.095 0.234,-0.114C0.25,-0.132 0.264,-0.157 0.276,-0.189C0.288,-0.22 0.297,-0.255 0.302,-0.294C0.284,-0.298 0.275,-0.312 0.275,-0.336C0.275,-0.363 0.285,-0.381 0.306,-0.39C0.305,-0.412 0.301,-0.427 0.296,-0.436C0.291,-0.444 0.281,-0.448 0.268,-0.448C0.246,-0.448 0.225,-0.432 0.204,-0.4C0.183,-0.368 0.167,-0.33 0.154,-0.285C0.141,-0.24 0.135,-0.201 0.135,-0.167C0.135,-0.135 0.139,-0.114 0.146,-0.103C0.153,-0.092 0.167,-0.086 0.186,-0.086Z" style="fill:rgb(254,254,254);fill-rule:nonzero;"/>
            </g>
            <g transform="matrix(144,0,0,144,901.54,856.292)">
                <path d="M0.344,0.006C0.309,0.006 0.283,-0.005 0.267,-0.026C0.251,-0.047 0.243,-0.074 0.243,-0.107C0.243,-0.121 0.245,-0.137 0.248,-0.155C0.251,-0.172 0.255,-0.189 0.259,-0.206C0.262,-0.223 0.265,-0.233 0.266,-0.238C0.271,-0.261 0.276,-0.284 0.281,-0.307C0.286,-0.33 0.288,-0.348 0.288,-0.362C0.288,-0.396 0.276,-0.413 0.252,-0.413C0.235,-0.413 0.219,-0.405 0.206,-0.388C0.193,-0.371 0.182,-0.348 0.174,-0.321L0.106,-0L-0.038,-0L0.068,-0.5L0.212,-0.5L0.201,-0.448C0.234,-0.485 0.273,-0.504 0.318,-0.504C0.352,-0.504 0.379,-0.495 0.399,-0.476C0.419,-0.457 0.429,-0.429 0.429,-0.391C0.429,-0.372 0.427,-0.35 0.422,-0.327C0.417,-0.303 0.411,-0.274 0.402,-0.24C0.397,-0.219 0.392,-0.199 0.388,-0.18C0.383,-0.16 0.381,-0.144 0.381,-0.133C0.381,-0.12 0.384,-0.109 0.39,-0.102C0.396,-0.095 0.406,-0.091 0.421,-0.091C0.437,-0.091 0.448,-0.093 0.454,-0.097C0.45,-0.063 0.438,-0.037 0.418,-0.02C0.397,-0.003 0.373,0.006 0.344,0.006Z" style="fill:rgb(254,254,254);fill-rule:nonzero;"/>
            </g>
        </g>
        <g transform="matrix(1,0,0,1,-693.344,-162.202)">
            <g transform="matrix(64,0,0,64,1011.51,815.959)">
                <path d="M0.421,-0.682L0.722,-0L0.583,-0L0.512,-0.166L0.209,-0.166L0.143,-0L0.005,-0L0.286,-0.682L0.421,-0.682ZM0.249,-0.266L0.469,-0.266L0.354,-0.536L0.249,-0.266Z" style="fill:rgb(254,254,254);fill-rule:nonzero;"/>
            </g>
            <g transform="matrix(64,0,0,64,1075.83,815.959)">
                <path d="M0.194,-0.682L0.418,-0.413L0.642,-0.682L0.76,-0.682L0.76,-0L0.628,-0L0.628,-0.479L0.624,-0.479L0.427,-0.239L0.408,-0.239L0.211,-0.479L0.207,-0.479L0.207,-0L0.075,-0L0.075,-0.682L0.194,-0.682Z" style="fill:rgb(254,254,254);fill-rule:nonzero;"/>
            </g>
            <g transform="matrix(64,0,0,64,1129.26,815.959)">
                <path d="M0.224,-0.465C0.283,-0.465 0.327,-0.452 0.358,-0.427C0.389,-0.403 0.405,-0.368 0.405,-0.323L0.405,-0.1C0.405,-0.083 0.412,-0.074 0.426,-0.074C0.432,-0.074 0.44,-0.077 0.45,-0.082C0.461,-0.087 0.47,-0.093 0.477,-0.099L0.477,-0.03C0.435,-0.004 0.397,0.009 0.362,0.009C0.34,0.009 0.324,0.005 0.312,-0.002C0.301,-0.009 0.293,-0.022 0.288,-0.04C0.242,-0.007 0.196,0.009 0.15,0.009C0.117,0.009 0.089,-0.002 0.065,-0.024C0.042,-0.047 0.03,-0.073 0.03,-0.104C0.03,-0.143 0.042,-0.174 0.065,-0.197C0.088,-0.22 0.129,-0.24 0.188,-0.257L0.285,-0.285L0.285,-0.306C0.285,-0.351 0.258,-0.373 0.204,-0.373C0.176,-0.373 0.149,-0.367 0.122,-0.354C0.094,-0.341 0.069,-0.323 0.047,-0.298L0.047,-0.406C0.097,-0.445 0.156,-0.465 0.224,-0.465ZM0.151,-0.122C0.151,-0.105 0.156,-0.092 0.167,-0.082C0.177,-0.072 0.19,-0.067 0.206,-0.067C0.232,-0.067 0.259,-0.079 0.285,-0.103L0.285,-0.223C0.252,-0.212 0.225,-0.201 0.206,-0.191C0.187,-0.181 0.173,-0.171 0.164,-0.16C0.155,-0.15 0.151,-0.137 0.151,-0.122Z" style="fill:rgb(254,254,254);fill-rule:nonzero;"/>
            </g>
            <g transform="matrix(64,0,0,64,1160.17,815.959)">
                <path d="M0.18,-0.682L0.18,-0L0.06,-0L0.06,-0.682L0.18,-0.682ZM0.511,-0.456L0.326,-0.231L0.534,-0L0.382,-0L0.182,-0.231L0.37,-0.456L0.511,-0.456Z" style="fill:rgb(254,254,254);fill-rule:nonzero;"/>
            </g>
            <g transform="matrix(64,0,0,64,1193.33,815.959)">
                <path d="M0.264,-0.465C0.331,-0.465 0.384,-0.443 0.423,-0.4C0.462,-0.357 0.482,-0.298 0.482,-0.222L0.482,-0.204L0.159,-0.204C0.164,-0.163 0.179,-0.132 0.205,-0.11C0.23,-0.088 0.265,-0.077 0.31,-0.077C0.339,-0.077 0.366,-0.082 0.393,-0.092C0.419,-0.102 0.447,-0.117 0.475,-0.137L0.475,-0.048C0.422,-0.01 0.357,0.009 0.281,0.009C0.209,0.009 0.15,-0.013 0.104,-0.056C0.059,-0.099 0.036,-0.157 0.036,-0.229C0.036,-0.298 0.057,-0.355 0.099,-0.399C0.142,-0.443 0.196,-0.465 0.264,-0.465ZM0.369,-0.277C0.366,-0.31 0.356,-0.336 0.339,-0.355C0.322,-0.373 0.299,-0.383 0.269,-0.383C0.239,-0.383 0.214,-0.374 0.196,-0.356C0.178,-0.338 0.166,-0.312 0.161,-0.277L0.369,-0.277Z" style="fill:rgb(254,254,254);fill-rule:nonzero;"/>
            </g>
            <g transform="matrix(64,0,0,64,1226.36,815.959)">
                <path d="M0.321,-0.465C0.337,-0.465 0.352,-0.461 0.368,-0.454C0.383,-0.447 0.401,-0.435 0.422,-0.418L0.379,-0.313C0.344,-0.339 0.316,-0.352 0.295,-0.352C0.276,-0.352 0.258,-0.345 0.24,-0.331C0.222,-0.317 0.207,-0.299 0.197,-0.276C0.186,-0.254 0.18,-0.231 0.18,-0.208L0.18,-0L0.06,-0L0.06,-0.456L0.18,-0.456L0.18,-0.34L0.182,-0.34C0.204,-0.384 0.226,-0.416 0.248,-0.435C0.27,-0.455 0.294,-0.465 0.321,-0.465Z" style="fill:rgb(254,254,254);fill-rule:nonzero;"/>
            </g>
            <g transform="matrix(64,0,0,64,1251.83,815.959)">
                <path d="M0.286,-0.465C0.334,-0.465 0.377,-0.455 0.416,-0.435C0.454,-0.415 0.484,-0.387 0.505,-0.352C0.527,-0.316 0.537,-0.275 0.537,-0.23C0.537,-0.183 0.527,-0.141 0.507,-0.106C0.486,-0.07 0.456,-0.042 0.417,-0.022C0.377,-0.001 0.334,0.009 0.286,0.009C0.238,0.009 0.195,-0.001 0.156,-0.022C0.117,-0.042 0.087,-0.07 0.067,-0.106C0.046,-0.141 0.036,-0.183 0.036,-0.23C0.036,-0.276 0.047,-0.317 0.068,-0.352C0.09,-0.388 0.12,-0.416 0.158,-0.435C0.197,-0.455 0.239,-0.465 0.286,-0.465ZM0.162,-0.23C0.162,-0.184 0.173,-0.148 0.196,-0.121C0.218,-0.094 0.248,-0.08 0.285,-0.08C0.324,-0.08 0.355,-0.093 0.377,-0.119C0.4,-0.145 0.411,-0.182 0.411,-0.231C0.411,-0.277 0.4,-0.313 0.377,-0.338C0.355,-0.363 0.324,-0.376 0.285,-0.376C0.249,-0.376 0.219,-0.363 0.196,-0.336C0.174,-0.309 0.162,-0.274 0.162,-0.23Z" style="fill:rgb(254,254,254);fill-rule:nonzero;"/>
            </g>
            <g transform="matrix(64,0,0,64,1288.51,815.959)">
                <path d="M0.324,-0.465C0.373,-0.465 0.412,-0.449 0.441,-0.417C0.47,-0.385 0.485,-0.342 0.485,-0.29L0.485,-0L0.365,-0L0.365,-0.278C0.365,-0.307 0.358,-0.331 0.344,-0.348C0.33,-0.365 0.311,-0.374 0.286,-0.374C0.268,-0.374 0.25,-0.369 0.234,-0.358C0.218,-0.347 0.2,-0.329 0.18,-0.303L0.18,-0L0.06,-0L0.06,-0.456L0.18,-0.456L0.18,-0.392C0.202,-0.418 0.225,-0.437 0.248,-0.448C0.272,-0.459 0.297,-0.465 0.324,-0.465Z" style="fill:rgb(254,254,254);fill-rule:nonzero;"/>
            </g>
            <g transform="matrix(64,0,0,64,1323.14,815.959)">
                <path d="M0.124,-0.667C0.143,-0.667 0.159,-0.66 0.172,-0.647C0.185,-0.634 0.192,-0.618 0.192,-0.599C0.192,-0.581 0.185,-0.565 0.172,-0.552C0.159,-0.538 0.143,-0.531 0.124,-0.531C0.106,-0.531 0.09,-0.538 0.076,-0.552C0.063,-0.565 0.056,-0.581 0.056,-0.599C0.056,-0.618 0.063,-0.634 0.077,-0.647C0.09,-0.66 0.106,-0.667 0.124,-0.667ZM0.184,-0.456L0.184,-0L0.064,-0L0.064,-0.456L0.184,-0.456Z" style="fill:rgb(254,254,254);fill-rule:nonzero;"/>
            </g>
            <g transform="matrix(64,0,0,64,1356.8,815.959)">
                <path d="M0.516,-0.682L0.516,-0.579L0.207,-0.579L0.207,-0.4L0.503,-0.4L0.503,-0.297L0.207,-0.297L0.207,-0.103L0.523,-0.103L0.523,-0L0.075,-0L0.075,-0.682L0.516,-0.682Z" style="fill:rgb(254,254,254);fill-rule:nonzero;"/>
            </g>
            <g transform="matrix(64,0,0,64,1393.33,815.959)">
                <path d="M0.131,-0.456L0.24,-0.192L0.347,-0.456L0.475,-0.456L0.269,0.009L0.211,0.009L0.002,-0.456L0.131,-0.456Z" style="fill:rgb(254,254,254);fill-rule:nonzero;"/>
            </g>
            <g transform="matrix(64,0,0,64,1423.86,815.959)">
                <path d="M0.264,-0.465C0.331,-0.465 0.384,-0.443 0.423,-0.4C0.462,-0.357 0.482,-0.298 0.482,-0.222L0.482,-0.204L0.159,-0.204C0.164,-0.163 0.179,-0.132 0.205,-0.11C0.23,-0.088 0.265,-0.077 0.31,-0.077C0.339,-0.077 0.366,-0.082 0.393,-0.092C0.419,-0.102 0.447,-0.117 0.475,-0.137L0.475,-0.048C0.422,-0.01 0.357,0.009 0.281,0.009C0.209,0.009 0.15,-0.013 0.104,-0.056C0.059,-0.099 0.036,-0.157 0.036,-0.229C0.036,-0.298 0.057,-0.355 0.099,-0.399C0.142,-0.443 0.196,-0.465 0.264,-0.465ZM0.369,-0.277C0.366,-0.31 0.356,-0.336 0.339,-0.355C0.322,-0.373 0.299,-0.383 0.269,-0.383C0.239,-0.383 0.214,-0.374 0.196,-0.356C0.178,-0.338 0.166,-0.312 0.161,-0.277L0.369,-0.277Z" style="fill:rgb(254,254,254);fill-rule:nonzero;"/>
            </g>
            <g transform="matrix(64,0,0,64,1456.89,815.959)">
                <path d="M0.324,-0.465C0.373,-0.465 0.412,-0.449 0.441,-0.417C0.47,-0.385 0.485,-0.342 0.485,-0.29L0.485,-0L0.365,-0L0.365,-0.278C0.365,-0.307 0.358,-0.331 0.344,-0.348C0.33,-0.365 0.311,-0.374 0.286,-0.374C0.268,-0.374 0.25,-0.369 0.234,-0.358C0.218,-0.347 0.2,-0.329 0.18,-0.303L0.18,-0L0.06,-0L0.06,-0.456L0.18,-0.456L0.18,-0.392C0.202,-0.418 0.225,-0.437 0.248,-0.448C0.272,-0.459 0.297,-0.465 0.324,-0.465Z" style="fill:rgb(254,254,254);fill-rule:nonzero;"/>
            </g>
            <g transform="matrix(64,0,0,64,1491.51,815.959)">
                <path d="M0.185,-0.577L0.195,-0.577L0.195,-0.456L0.351,-0.456L0.351,-0.365L0.195,-0.365L0.195,-0.155C0.195,-0.134 0.201,-0.118 0.213,-0.105C0.226,-0.092 0.243,-0.086 0.264,-0.086C0.292,-0.086 0.324,-0.096 0.361,-0.116L0.361,-0.02C0.318,-0.001 0.277,0.009 0.239,0.009C0.187,0.009 0.147,-0.005 0.118,-0.033C0.09,-0.061 0.075,-0.099 0.075,-0.147L0.075,-0.365L0.004,-0.365L0.004,-0.385L0.185,-0.577Z" style="fill:rgb(254,254,254);fill-rule:nonzero;"/>
            </g>
        </g>
    </g>
</svg>
